<svg width="235" height="50" viewBox="0 0 235 50" fill="none" xmlns="http://www.w3.org/2000/svg">
  <g clip-path="url(#clip0_267_1194)">
    <path d="M97.5487 9.99999V40H92.3404V16.4583H92.2709L82.9654 40H79.4932L69.9793 16.4583H69.9098V40H65.1182V9.99999H72.6182L81.2293 32.2222H81.3682L90.4654 9.99999H97.5487ZM101.854 12.2917C101.854 11.4583 102.132 10.7639 102.757 10.2083C103.382 9.65277 104.076 9.37499 104.91 9.37499C105.813 9.37499 106.576 9.65277 107.132 10.2083C107.688 10.7639 108.035 11.4583 108.035 12.2917C108.035 13.125 107.757 13.8194 107.132 14.375C106.507 14.9305 105.813 15.2083 104.91 15.2083C104.007 15.2083 103.313 14.9305 102.757 14.375C102.201 13.75 101.854 13.0555 101.854 12.2917ZM107.479 18.4722V40H102.41V18.4722H107.479ZM122.826 36.3194C123.59 36.3194 124.424 36.1805 125.326 35.7639C126.229 35.4167 127.063 34.9305 127.826 34.375V39.0972C126.993 39.5833 126.09 39.9305 125.049 40.1389C124.007 40.3472 122.896 40.4861 121.646 40.4861C118.451 40.4861 115.882 39.5139 113.938 37.5C111.924 35.4861 110.951 32.9167 110.951 29.8611C110.951 26.3889 111.993 23.5417 114.007 21.3194C116.021 19.0972 118.868 17.9861 122.618 17.9861C123.59 17.9861 124.563 18.125 125.465 18.3333C126.438 18.5417 127.201 18.8889 127.757 19.1667V24.0278C126.993 23.4722 126.16 22.9861 125.396 22.7083C124.563 22.4305 123.729 22.2222 122.896 22.2222C120.882 22.2222 119.285 22.8472 118.035 24.1667C116.785 25.4861 116.229 27.2222 116.229 29.4444C116.229 31.5972 116.854 33.3333 118.035 34.5139C119.215 35.6944 120.813 36.3194 122.826 36.3194ZM142.201 18.125C142.618 18.125 142.965 18.125 143.313 18.1944C143.66 18.2639 143.938 18.3333 144.146 18.4028V23.5417C143.868 23.3333 143.521 23.125 142.965 22.9861C142.41 22.8472 141.854 22.7083 141.09 22.7083C139.84 22.7083 138.799 23.2639 137.965 24.3055C137.132 25.3472 136.646 26.9444 136.646 29.1667V40H131.576V18.4722H136.646V21.875H136.715C137.201 20.6944 137.896 19.7917 138.799 19.0972C139.771 18.4722 140.882 18.125 142.201 18.125ZM144.424 29.5833C144.424 26.0417 145.465 23.1944 147.41 21.1111C149.424 19.0278 152.201 17.9861 155.743 17.9861C159.076 17.9861 161.715 18.9583 163.59 20.9722C165.465 22.9861 166.438 25.6944 166.438 29.0972C166.438 32.5694 165.396 35.3472 163.451 37.4306C161.438 39.5139 158.729 40.5555 155.257 40.5555C151.924 40.5555 149.285 39.5833 147.34 37.6389C145.396 35.625 144.424 32.9167 144.424 29.5833ZM149.701 29.375C149.701 31.5972 150.188 33.3333 151.229 34.5139C152.271 35.6944 153.729 36.3194 155.604 36.3194C157.41 36.3194 158.868 35.7639 159.84 34.5139C160.813 33.3333 161.299 31.5972 161.299 29.2361C161.299 26.9444 160.813 25.2083 159.84 23.9583C158.868 22.7778 157.41 22.1528 155.674 22.1528C153.799 22.1528 152.41 22.7778 151.368 24.0278C150.188 25.3472 149.701 27.0833 149.701 29.375ZM174.007 24.1667C174.007 24.8611 174.215 25.4861 174.701 25.9028C175.188 26.3194 176.16 26.8055 177.757 27.4305C179.771 28.2639 181.229 29.1667 181.993 30.1389C182.826 31.1805 183.243 32.3611 183.243 33.8194C183.243 35.8333 182.479 37.4305 180.882 38.6805C179.354 39.9305 177.201 40.4861 174.563 40.4861C173.66 40.4861 172.688 40.3472 171.576 40.1389C170.465 39.9305 169.563 39.6528 168.799 39.3055V34.3055C169.701 34.9306 170.743 35.4861 171.785 35.8333C172.826 36.1805 173.799 36.3889 174.701 36.3889C175.813 36.3889 176.715 36.25 177.201 35.9028C177.757 35.5555 178.035 35.0694 178.035 34.3055C178.035 33.6111 177.757 33.0555 177.201 32.5C176.646 32.0139 175.535 31.4583 174.007 30.8333C172.132 30.0694 170.813 29.1667 170.049 28.1944C169.285 27.2222 168.868 25.9722 168.868 24.4444C168.868 22.5 169.632 20.9028 171.16 19.6528C172.688 18.4028 174.701 17.7778 177.132 17.7778C177.896 17.7778 178.729 17.8472 179.632 18.0555C180.535 18.2639 181.368 18.4722 181.993 18.6805V23.6111C181.299 23.1944 180.535 22.7778 179.632 22.4305C178.729 22.0833 177.826 21.9444 176.993 21.9444C176.021 21.9444 175.257 22.1528 174.771 22.5C174.285 22.9861 174.007 23.4722 174.007 24.1667ZM185.396 29.5833C185.396 26.0417 186.438 23.1944 188.382 21.1111C190.396 19.0278 193.174 17.9861 196.715 17.9861C200.049 17.9861 202.688 18.9583 204.563 20.9722C206.438 22.9861 207.41 25.6944 207.41 29.0972C207.41 32.5694 206.368 35.3472 204.424 37.4306C202.41 39.5139 199.701 40.5555 196.229 40.5555C192.896 40.5555 190.257 39.5833 188.313 37.6389C186.438 35.625 185.396 32.9167 185.396 29.5833ZM190.674 29.375C190.674 31.5972 191.16 33.3333 192.201 34.5139C193.243 35.6944 194.701 36.3194 196.576 36.3194C198.382 36.3194 199.84 35.7639 200.813 34.5139C201.785 33.3333 202.271 31.5972 202.271 29.2361C202.271 26.9444 201.785 25.2083 200.813 23.9583C199.84 22.7778 198.382 22.1528 196.646 22.1528C194.771 22.1528 193.382 22.7778 192.34 24.0278C191.229 25.3472 190.674 27.0833 190.674 29.375ZM224.285 22.6389H216.715V40H211.576V22.6389H207.965V18.4722H211.576V15.4861C211.576 13.2639 212.34 11.3889 213.799 9.93055C215.257 8.47222 217.132 7.77777 219.424 7.77777C220.049 7.77777 220.604 7.84722 221.09 7.84722C221.576 7.84722 221.993 7.9861 222.34 8.12499V12.5C222.201 12.4305 221.854 12.2917 221.438 12.1528C221.021 12.0139 220.535 11.9444 219.979 11.9444C218.938 11.9444 218.104 12.2917 217.549 12.9167C216.993 13.5417 216.715 14.5833 216.715 15.8333V18.4028H224.285V13.5417L229.354 12.0139V18.4028H234.493V22.5694H229.354V32.6389C229.354 33.9583 229.632 34.8611 230.049 35.4167C230.535 35.9722 231.299 36.25 232.34 36.25C232.618 36.25 232.965 36.1806 233.382 36.0417C233.799 35.9028 234.146 35.7639 234.424 35.5555V39.7222C234.076 39.9305 233.59 40.0694 232.827 40.2083C232.063 40.3472 231.368 40.4167 230.604 40.4167C228.451 40.4167 226.854 39.8611 225.813 38.75C224.771 37.6389 224.215 35.9028 224.215 33.6111L224.285 22.6389Z" fill="#737373"/>
    <path d="M23.7988 0H0.0488281V23.75H23.7988V0Z" fill="#F25022"/>
    <path d="M50.0488 0H26.2988V23.75H50.0488V0Z" fill="#7FBA00"/>
    <path d="M23.7988 26.25H0.0488281V50H23.7988V26.25Z" fill="#00A4EF"/>
    <path d="M50.0488 26.25H26.2988V50H50.0488V26.25Z" fill="#FFB900"/>
  </g>
  <defs>
    <clipPath id="clip0_267_1194">
      <rect width="234.444" height="50" fill="white" transform="translate(0.0488281)"/>
    </clipPath>
  </defs>
</svg>