<svg width="147" height="50" viewBox="0 0 147 50" fill="none" xmlns="http://www.w3.org/2000/svg">
  <path d="M34.4949 26.5666C34.4375 20.2408 39.6658 17.2014 39.9014 17.0521C36.9597 12.7487 32.3863 12.1627 30.7546 12.0937C26.8649 11.6973 23.1591 14.3862 21.1827 14.3862C19.2062 14.3862 16.1611 12.1512 12.9322 12.2144C8.68627 12.2776 4.77361 14.6792 2.58459 18.4827C-1.82219 26.1242 1.45847 37.46 5.75608 43.6708C7.85893 46.7044 10.3582 50.123 13.6504 49.9966C16.8219 49.8702 18.0169 47.9454 21.8434 47.9454C25.6699 47.9454 26.75 49.9966 30.0939 49.9334C33.5009 49.8644 35.6612 46.8308 37.7468 43.7857C40.1542 40.2638 41.1482 36.8509 41.2056 36.6728C41.1309 36.6441 34.5639 34.1276 34.4949 26.5666Z" fill="black"/>
  <path d="M28.2036 7.98613C29.9494 5.87183 31.1271 2.92899 30.8056 0C28.2895 0.103914 25.2441 1.67648 23.4402 3.79216C21.8261 5.65984 20.3921 8.65256 20.7911 11.5261C23.5898 11.745 26.4579 10.0949 28.2036 7.98751" fill="black"/>
  <path d="M56.5508 32.7883L53.6412 41.5614H49.9336L59.4078 13.6709H63.7514L73.2657 41.5614H69.414L66.4323 32.7883H56.5508ZM65.698 29.9729L62.9685 21.9466C62.3478 20.1246 61.935 18.4689 61.5207 16.8562H61.4403L60.034 21.9203L57.3046 29.9868L65.698 29.9729Z" fill="black"/>
  <path d="M76.0862 28.072L75.9199 21.5323H79.1897L79.356 24.9684H79.4364C80.9244 22.5271 83.2853 21.0793 86.5552 21.0793C91.3989 21.0793 95.0345 25.1762 95.0345 31.26C95.0345 38.4592 90.6508 42.0158 85.9317 42.0158C83.2826 42.0158 80.9674 40.8548 79.7661 38.8735H79.6858V49.7692H76.0834L76.0862 28.072ZM79.683 33.409C79.683 33.9632 79.7634 34.4426 79.8493 34.897C80.5101 37.4187 82.7034 39.1603 85.3137 39.1603C89.1627 39.1603 91.41 36.0179 91.41 31.4208C91.41 27.4028 89.3013 23.975 85.4523 23.975C82.9584 23.975 80.6542 25.7568 79.9476 28.4848C79.7952 28.9666 79.7121 29.4677 79.701 29.9729V33.409H79.683ZM98.799 28.072L98.6327 21.5323H101.903L102.069 24.9684H102.149C103.637 22.5271 105.998 21.0793 109.268 21.0793C114.112 21.0793 117.747 25.1762 117.747 31.26C117.747 38.4592 113.364 42.0158 108.644 42.0158C105.995 42.0158 103.68 40.8548 102.479 38.8735H102.399V49.7692H98.7962L98.799 28.072ZM102.401 33.409C102.401 33.9632 102.482 34.4426 102.568 34.897C103.228 37.4187 105.422 39.1603 108.032 39.1603C111.881 39.1603 114.128 36.0179 114.128 31.4208C114.128 27.4028 112.02 23.975 108.171 23.975C105.677 23.975 103.373 25.7568 102.666 28.4848C102.514 28.9666 102.43 29.4677 102.419 29.9729V33.409H102.401ZM121.516 12.1856H125.16V41.5628H121.516V12.1856ZM132.478 32.2091C132.559 37.1333 135.706 39.1616 139.343 39.1616C141.952 39.1616 143.521 38.7072 144.888 38.1281L145.509 40.737C144.227 41.3189 142.045 41.9784 138.85 41.9784C132.685 41.9784 129.002 37.9216 129.002 31.8835C129.002 25.8454 132.559 21.082 138.396 21.082C144.935 21.082 146.667 26.8319 146.667 30.5035C146.667 31.2517 146.587 31.8253 146.529 32.198L132.478 32.2091ZM143.154 29.6002C143.195 27.2864 142.2 23.684 138.103 23.684C134.421 23.684 132.807 27.0785 132.52 29.6002H143.154Z" fill="black"/>
</svg>
