<svg width="165" height="50" viewBox="0 0 165 50" fill="none" xmlns="http://www.w3.org/2000/svg">
  <path d="M50.9517 24.9982C50.9517 38.8063 39.7589 50 25.9513 50C12.1445 50 0.952148 38.8063 0.952148 24.9982C0.952148 11.1923 12.144 0 25.9513 0C39.7589 0 50.9517 11.1923 50.9517 24.9982Z" fill="black"/>
  <path d="M28.5655 13.3811C29.9332 11.7746 31.77 10.6104 33.8742 10.5382C35.9762 10.4686 37.3628 11.2611 37.4168 12.7732C37.3902 14.0991 37.3581 21.9731 29.9243 21.793C29.4966 21.7826 29.1025 21.7526 28.7361 21.7086L28.0739 25.3721L28.0559 25.4561C27.4646 28.223 26.6638 31.9705 23.8736 35.2446C21.4525 38.1293 18.9948 38.5772 17.8945 38.615C15.8357 38.6846 14.4706 37.5848 14.4222 36.1164C14.3749 34.695 15.6292 33.9191 16.4525 33.8913C17.551 33.8551 18.3115 34.6528 18.3403 35.5722C18.3684 36.3507 17.9632 36.5939 17.6947 36.7405C17.5155 36.8841 17.2459 37.0318 17.2559 37.352C17.2622 37.4897 17.4095 37.8047 17.8668 37.791C18.737 37.7599 19.3146 37.329 19.7187 37.0407C21.7243 35.3657 22.4963 32.4477 23.5068 27.1352L23.7188 25.8466L23.7313 25.7843C24.073 24.0728 24.4531 22.1693 25.0289 20.2724L25.3185 19.3703C26.045 17.2348 27.0511 15.1449 28.5655 13.3811Z" fill="#D9D9D9"/>
  <path d="M29.0732 19.6923C30.8639 19.9547 32.4341 19.1345 33.1433 18.6748C34.1183 18.1219 34.7488 17.5437 35.3818 15.0117C35.5853 14.1977 35.4737 13.6231 34.9748 12.9357C34.5687 12.376 33.981 12.1519 33.7538 12.1627C30.6446 12.2656 29.8794 15.6312 29.2149 19.0508L29.0732 19.6923Z" fill="black"/>
  <path d="M79.0481 18.72C80.7121 18.72 82.1948 19.0827 83.4961 19.808C84.8188 20.5333 85.8535 21.5573 86.6001 22.88C87.3468 24.2027 87.7201 25.728 87.7201 27.456C87.7201 29.184 87.3468 30.72 86.6001 32.064C85.8535 33.3867 84.8188 34.4107 83.4961 35.136C82.1948 35.8613 80.7121 36.224 79.0481 36.224C76.7441 36.224 74.9201 35.456 73.5761 33.92V42.208H69.5761V18.912H73.3841V21.152C74.0455 20.3413 74.8561 19.7333 75.8161 19.328C76.7975 18.9227 77.8748 18.72 79.0481 18.72ZM78.6001 32.8C80.0721 32.8 81.2775 32.3093 82.2161 31.328C83.1761 30.3467 83.6561 29.056 83.6561 27.456C83.6561 25.856 83.1761 24.5653 82.2161 23.584C81.2775 22.6027 80.0721 22.112 78.6001 22.112C77.6401 22.112 76.7761 22.336 76.0081 22.784C75.2401 23.2107 74.6321 23.8293 74.1841 24.64C73.7361 25.4507 73.5121 26.3893 73.5121 27.456C73.5121 28.5227 73.7361 29.4613 74.1841 30.272C74.6321 31.0827 75.2401 31.712 76.0081 32.16C76.7761 32.5867 77.6401 32.8 78.6001 32.8ZM97.1456 36.224C95.375 36.224 93.9883 35.744 92.9856 34.784C92.0043 33.8027 91.5136 32.4267 91.5136 30.656V12.256H95.5136V30.368C95.5136 32.0747 96.3136 32.928 97.9136 32.928C98.447 32.928 98.927 32.8213 99.3536 32.608L99.5456 35.808C98.799 36.0853 97.999 36.224 97.1456 36.224ZM118.808 18.912V36H115V33.824C114.36 34.592 113.56 35.1893 112.6 35.616C111.64 36.0213 110.605 36.224 109.496 36.224C107.213 36.224 105.41 35.5947 104.088 34.336C102.786 33.056 102.136 31.168 102.136 28.672V18.912H106.136V28.128C106.136 29.664 106.477 30.816 107.16 31.584C107.864 32.3307 108.856 32.704 110.136 32.704C111.565 32.704 112.696 32.2667 113.528 31.392C114.381 30.496 114.808 29.216 114.808 27.552V18.912H118.808ZM141.005 18.912V33.408C141.005 39.424 137.933 42.432 131.789 42.432C130.146 42.432 128.589 42.2187 127.117 41.792C125.645 41.3867 124.429 40.7893 123.469 40L125.261 36.992C126.008 37.6107 126.946 38.1013 128.077 38.464C129.229 38.848 130.392 39.04 131.565 39.04C133.442 39.04 134.818 38.6133 135.693 37.76C136.568 36.9067 137.005 35.6053 137.005 33.856V32.96C136.322 33.7067 135.49 34.272 134.509 34.656C133.528 35.04 132.45 35.232 131.277 35.232C129.656 35.232 128.184 34.8907 126.861 34.208C125.56 33.504 124.525 32.5227 123.757 31.264C123.01 30.0053 122.637 28.5653 122.637 26.944C122.637 25.3227 123.01 23.8933 123.757 22.656C124.525 21.3973 125.56 20.4267 126.861 19.744C128.184 19.0613 129.656 18.72 131.277 18.72C132.514 18.72 133.634 18.9227 134.637 19.328C135.661 19.7333 136.514 20.352 137.197 21.184V18.912H141.005ZM131.885 31.84C133.4 31.84 134.637 31.392 135.597 30.496C136.578 29.5787 137.069 28.3947 137.069 26.944C137.069 25.5147 136.578 24.352 135.597 23.456C134.637 22.56 133.4 22.112 131.885 22.112C130.349 22.112 129.09 22.56 128.109 23.456C127.149 24.352 126.669 25.5147 126.669 26.944C126.669 28.3947 127.149 29.5787 128.109 30.496C129.09 31.392 130.349 31.84 131.885 31.84ZM153.944 36.224C152.216 36.224 150.658 35.8507 149.272 35.104C147.885 34.3573 146.797 33.3227 146.008 32C145.24 30.656 144.856 29.1413 144.856 27.456C144.856 25.7707 145.24 24.2667 146.008 22.944C146.797 21.6213 147.885 20.5867 149.272 19.84C150.658 19.0933 152.216 18.72 153.944 18.72C155.693 18.72 157.261 19.0933 158.648 19.84C160.034 20.5867 161.112 21.6213 161.88 22.944C162.669 24.2667 163.064 25.7707 163.064 27.456C163.064 29.1413 162.669 30.656 161.88 32C161.112 33.3227 160.034 34.3573 158.648 35.104C157.261 35.8507 155.693 36.224 153.944 36.224ZM153.944 32.8C155.416 32.8 156.632 32.3093 157.592 31.328C158.552 30.3467 159.032 29.056 159.032 27.456C159.032 25.856 158.552 24.5653 157.592 23.584C156.632 22.6027 155.416 22.112 153.944 22.112C152.472 22.112 151.256 22.6027 150.296 23.584C149.357 24.5653 148.888 25.856 148.888 27.456C148.888 29.056 149.357 30.3467 150.296 31.328C151.256 32.3093 152.472 32.8 153.944 32.8Z" fill="black"/>
</svg>
