<svg width="265" height="50" viewBox="0 0 265 50" fill="none" xmlns="http://www.w3.org/2000/svg">
  <g clip-path="url(#clip0_267_1200)">
    <path d="M22.3328 44.2504C22.3328 41.8899 20.4199 39.9974 18.0798 39.9974C13.2366 39.9974 9.28885 36.0496 9.28885 31.2064C9.28885 26.526 12.9721 22.6801 17.5914 22.4359C9.32955 22.7004 0.925266 29.9651 2.18693 38.0845C4.85269 44.2097 10.9575 48.5238 18.0594 48.5238C20.4403 48.5034 22.3328 46.5905 22.3328 44.2504Z" fill="#2A3186"/>
    <path d="M17.6122 22.4359C17.7749 22.4359 17.9173 22.4155 18.0802 22.4155C22.1501 22.4155 25.5688 25.183 26.5659 28.9476C25.9147 25.9767 23.8797 19.5666 17.9784 17.8572C13.176 16.4531 6.50137 17.8369 3.69316 21.5812C1.86172 24.3284 0.783203 27.6452 0.783203 31.2064C0.783203 33.6484 1.29194 35.9681 2.20766 38.0845C0.925649 29.9651 9.35029 22.7004 17.6122 22.4359Z" fill="#CE3089"/>
    <path d="M18.0795 13.9095C12.0968 13.9095 6.82634 16.9619 3.71289 21.5813C6.5211 17.8369 13.1957 16.4532 17.9981 17.8573C23.8792 19.5667 25.9344 25.9564 26.5856 28.9477C26.7077 29.4157 26.789 29.8838 26.8298 30.3722C26.8298 30.4332 26.8298 30.4739 26.8501 30.5349C26.8705 30.7588 26.8705 30.9827 26.8705 31.2065V44.2707V48.5035H35.3765V31.2065C35.3765 21.6626 27.6234 13.9095 18.0795 13.9095Z" fill="#2A3186"/>
    <path d="M78.9036 14.7435C74.5693 14.7435 71.3134 16.3104 69.1156 19.4646C67.1824 16.3104 64.2114 14.7435 60.1823 14.7435C56.0717 14.7435 53.0193 16.2087 51.0455 19.1389V15.6592H42.5801V48.5031H51.0455V30.0462C51.0455 27.645 51.5948 25.7933 52.714 24.5316C53.8332 23.2698 55.3392 22.6187 57.2113 22.6187C58.9613 22.6187 60.3247 23.1681 61.2811 24.267C62.2376 25.3659 62.726 26.8921 62.726 28.8659V48.5031H71.1913V30.0462C71.1913 27.645 71.7203 25.7933 72.7989 24.5316C73.8774 23.2698 75.3628 22.6187 77.2961 22.6187C79.0461 22.6187 80.4095 23.1681 81.366 24.267C82.3223 25.3659 82.8107 26.8921 82.8107 28.8659V48.5031H91.2761V28.2758C91.2761 24.1652 90.1569 20.8687 87.8981 18.4267C85.6801 15.9848 82.6684 14.7435 78.9036 14.7435Z" fill="#2A3186"/>
    <path d="M107.007 15.6591H98.542V48.5029H107.007V15.6591Z" fill="#2A3186"/>
    <path d="M102.755 1.2926C101.351 1.2926 100.13 1.82169 99.1129 2.85951C98.0751 3.91767 97.5664 5.13863 97.5664 6.54273C97.5664 7.94684 98.0751 9.16781 99.1129 10.1853C100.151 11.2231 101.351 11.7318 102.755 11.7318C104.2 11.7318 105.442 11.2231 106.459 10.1853C107.497 9.14746 108.006 7.94684 108.006 6.54273C108.006 5.13863 107.497 3.91767 106.459 2.85951C105.442 1.80134 104.2 1.2926 102.755 1.2926Z" fill="#2A3186"/>
    <path d="M123.226 0.560181H114.761V48.5236H123.226V0.560181Z" fill="#2A3186"/>
    <path d="M142.354 6.48193L133.89 9.04595V15.6799H128.171V23.8196H133.89V37.4739C133.89 41.9916 135.09 45.1254 137.471 46.8754C139.851 48.6254 143.962 49.1749 149.782 48.5237V40.8317C148.154 40.913 146.811 40.9334 145.712 40.8724C144.613 40.8113 143.779 40.5061 143.209 39.977C142.64 39.4479 142.354 38.6136 142.354 37.4739V23.8196H149.782V15.6799H142.354V6.48193Z" fill="#2A3186"/>
    <path d="M170.416 14.7435C165.553 14.7435 161.442 16.4122 158.104 19.7698C154.748 23.1275 153.079 27.2176 153.079 32.0812C153.079 36.9447 154.748 41.0552 158.104 44.3925C161.462 47.7501 165.553 49.4188 170.416 49.4188C175.279 49.4188 179.39 47.7501 182.769 44.3925C186.146 41.0348 187.836 36.9447 187.836 32.0812C187.836 27.2176 186.146 23.1071 182.769 19.7698C179.39 16.4325 175.279 14.7435 170.416 14.7435ZM176.786 38.593C175.076 40.3023 172.959 41.1569 170.416 41.1569C167.873 41.1569 165.757 40.3023 164.067 38.593C162.378 36.8837 161.544 34.7266 161.544 32.0812C161.544 29.456 162.378 27.2787 164.067 25.5693C165.757 23.86 167.873 23.0054 170.416 23.0054C172.959 23.0054 175.076 23.86 176.786 25.5693C178.495 27.2787 179.349 29.4358 179.349 32.0812C179.349 34.7266 178.495 36.8837 176.786 38.593Z" fill="#2A3186"/>
    <path d="M212.049 14.7435C207.572 14.7435 204.316 16.2697 202.26 19.3425V15.6592H193.796V48.5031H202.26V30.7584C202.26 28.052 202.912 26.0171 204.235 24.6537C205.558 23.2902 207.308 22.6187 209.485 22.6187C211.459 22.6187 213.026 23.2088 214.206 24.3688C215.387 25.5287 215.976 27.1973 215.976 29.395V48.5031H224.442V28.3368C224.442 24.0838 223.262 20.767 220.921 18.3454C218.622 15.9441 215.651 14.7435 212.049 14.7435Z" fill="#2A3186"/>
    <path d="M248.028 41.7473C241.881 41.7473 239.989 39.6921 238.85 35.5814H263.614C263.838 34.3605 263.941 33.2006 263.941 32.1017C263.941 27.1975 262.374 23.0869 259.239 19.7497C256.106 16.4123 252.138 14.764 247.314 14.764C242.228 14.764 238.076 16.4123 234.841 19.7293C231.605 23.0463 229.978 27.1568 229.978 32.1017C229.978 37.0873 231.626 41.2385 234.903 44.5148C238.178 47.791 240.701 49.4393 247.885 49.4393C248.006 49.4393 248.17 49.4393 248.353 49.4393C250.51 49.4801 252.28 47.7504 252.28 45.5934C252.28 43.4769 250.551 41.7473 248.434 41.7473C248.292 41.7473 248.15 41.7473 248.028 41.7473ZM241.679 24.1044C243.164 22.9444 245.056 22.3543 247.335 22.3543C249.268 22.3543 250.978 22.9038 252.484 24.0026C253.989 25.1015 254.987 26.7702 255.475 28.9882H238.728C239.216 26.8922 240.193 25.2643 241.679 24.1044Z" fill="#2A3186"/>
    <path d="M260.013 41.7681C258.996 41.7681 258.101 42.1546 257.349 42.9279C256.595 43.7012 256.208 44.5966 256.208 45.614C256.208 46.6315 256.595 47.5269 257.349 48.2798C258.101 49.0327 258.996 49.4194 260.013 49.4194C261.072 49.4194 261.988 49.0327 262.741 48.2798C263.494 47.5269 263.88 46.6315 263.88 45.614C263.88 44.5966 263.494 43.6808 262.741 42.9279C261.988 42.1546 261.072 41.7681 260.013 41.7681Z" fill="#CE3089"/>
  </g>
  <defs>
    <clipPath id="clip0_267_1200">
      <rect width="264.474" height="50" fill="white" transform="translate(0.310547)"/>
    </clipPath>
  </defs>
</svg>
