<svg width="266" height="50" viewBox="0 0 266 50" fill="none" xmlns="http://www.w3.org/2000/svg">
  <mask id="mask0_267_1140" style="mask-type:luminance" maskUnits="userSpaceOnUse" x="1" y="6" width="47" height="37">
    <path d="M1.59668 6.12122H47.5795V42.7934H1.59668V6.12122Z" fill="white"/>
  </mask>
  <g mask="url(#mask0_267_1140)">
    <mask id="mask1_267_1140" style="mask-type:luminance" maskUnits="userSpaceOnUse" x="1" y="6" width="47" height="37">
      <path d="M39.5328 9.82736C41.7557 9.82736 43.5838 11.642 43.5838 13.8515V34.8356C43.5838 37.0423 41.7557 38.857 39.5328 38.857H9.38106C7.15814 38.857 5.33009 37.0423 5.33009 34.8356V13.8515C5.33009 11.642 7.15814 9.82736 9.38106 9.82736H39.5328ZM39.5328 6.12122H9.38106C5.09261 6.12122 1.59668 9.59161 1.59668 13.8515V34.8356C1.59668 39.0927 5.09261 42.5631 9.38106 42.5631H39.5328C43.8212 42.5631 47.3172 39.0927 47.3172 34.8356V13.8515C47.3172 9.59161 43.8212 6.12122 39.5328 6.12122Z" fill="white"/>
    </mask>
  <g mask="url(#mask1_267_1140)">
  <path d="M1.59668 6.12122H47.2757V42.3986H1.59668V6.12122Z" fill="#DA1E61"/>
  </g>
  </g>
    <path d="M69.4195 38.899C64.6174 38.899 62.2178 36.2318 62.2178 30.8946V10.6315C62.2178 8.8332 63.1069 7.93408 64.8908 7.93408C66.7023 7.93408 67.608 8.8332 67.608 10.6315V30.6315C67.608 33.2055 68.685 34.4911 70.8444 34.4911C71.0708 34.4911 71.2862 34.4856 71.485 34.4692C71.6894 34.4555 71.8937 34.4335 72.0925 34.4034C72.4957 34.3458 72.7691 34.4527 72.9099 34.7214C73.0563 34.9927 73.1308 35.5437 73.1308 36.3771C73.1308 37.087 72.9872 37.6435 72.7 38.0437C72.4129 38.4467 71.9379 38.6852 71.2752 38.7674C70.6704 38.8551 70.0519 38.899 69.4195 38.899Z" fill="#131313"/>
    <path d="M82.9289 38.8991C81.4046 38.8991 80.046 38.6058 78.853 38.0219C77.6601 37.438 76.724 36.6458 76.0474 35.6425C75.3681 34.6419 75.0312 33.5153 75.0312 32.2653C75.0312 30.7247 75.4317 29.5021 76.2352 28.603C77.0443 27.7039 78.356 27.0542 80.1675 26.6513C81.9789 26.251 84.409 26.0482 87.4575 26.0482H88.9708V25.1491C88.9708 23.7236 88.6532 22.6984 88.0209 22.0679C87.3858 21.4402 86.3226 21.125 84.8287 21.125C83.9892 21.125 83.0863 21.2291 82.1225 21.432C81.1643 21.6293 80.1509 21.9693 79.085 22.4517C78.3919 22.7669 77.8147 22.8026 77.3508 22.5614C76.8924 22.3201 76.5832 21.9364 76.423 21.41C76.2684 20.8782 76.296 20.341 76.5114 19.7982C76.7323 19.2582 77.1741 18.8607 77.8368 18.603C79.1623 18.0548 80.4353 17.6683 81.6586 17.4407C82.8791 17.216 83.992 17.1008 84.9944 17.1008C88.0706 17.1008 90.357 17.8108 91.8537 19.228C93.3476 20.6398 94.096 22.83 94.096 25.796V36.0701C94.096 37.8985 93.262 38.8114 91.5996 38.8114C89.8986 38.8114 89.0481 37.8985 89.0481 36.0701V35.1271C88.5621 36.2976 87.7834 37.2187 86.7175 37.8903C85.6571 38.5619 84.3924 38.8991 82.9289 38.8991ZM84.0445 35.2149C85.4583 35.2149 86.6319 34.7324 87.568 33.7675C88.5014 32.7971 88.9708 31.5635 88.9708 30.0723V29.1293H87.5017C84.7983 29.1293 82.9206 29.3377 81.8685 29.7543C80.8136 30.171 80.289 30.9221 80.289 32.0021C80.289 32.9451 80.6203 33.7182 81.2831 34.3157C81.9458 34.9161 82.8653 35.2149 84.0445 35.2149Z" fill="#131313"/>
    <path d="M114.251 38.8991C111.084 38.8991 108.369 38.2631 106.11 36.9912C103.857 35.7192 102.126 33.921 100.919 31.5964C99.7094 29.2719 99.1074 26.5252 99.1074 23.3508C99.1074 20.1874 99.7094 17.449 100.919 15.1381C102.126 12.8218 103.857 11.0263 106.11 9.75433C108.369 8.4824 111.084 7.84644 114.251 7.84644C115.833 7.84644 117.388 8.04929 118.912 8.44951C120.436 8.85247 121.773 9.42264 122.922 10.16C123.673 10.6507 124.117 11.2319 124.258 11.9035C124.405 12.5696 124.319 13.1809 124.004 13.7346C123.687 14.2911 123.212 14.6639 122.579 14.853C121.944 15.0367 121.237 14.8722 120.459 14.3596C119.567 13.7894 118.603 13.3782 117.565 13.1206C116.532 12.8574 115.488 12.7258 114.428 12.7258C111.349 12.7258 109.004 13.6469 107.392 15.489C105.779 17.3311 104.973 19.9517 104.973 23.3508C104.973 26.7499 105.779 29.3788 107.392 31.2346C109.004 33.0931 111.349 34.0197 114.428 34.0197C115.516 34.0197 116.593 33.8854 117.653 33.614C118.719 33.3453 119.73 32.9204 120.679 32.3421C121.453 31.8596 122.14 31.7061 122.745 31.8815C123.347 32.0515 123.8 32.3969 124.104 32.9232C124.405 33.4495 124.496 34.0279 124.38 34.6556C124.269 35.2861 123.883 35.8453 123.22 36.3333C122.071 37.1611 120.696 37.7971 119.1 38.2412C117.509 38.6798 115.891 38.8991 114.251 38.8991Z" fill="#131313"/>
    <path d="M138.543 38.8991C136.355 38.8991 134.456 38.4577 132.843 37.5723C131.236 36.6896 129.985 35.4287 129.087 33.7894C128.196 32.1447 127.751 30.2094 127.751 27.978C127.751 25.7494 128.196 23.8223 129.087 22.1995C129.985 20.5712 131.236 19.313 132.843 18.4276C134.456 17.5449 136.355 17.1008 138.543 17.1008C140.73 17.1008 142.624 17.5449 144.231 18.4276C145.844 19.313 147.095 20.5712 147.987 22.1995C148.876 23.8223 149.323 25.7494 149.323 27.978C149.323 30.2094 148.876 32.1447 147.987 33.7894C147.095 35.4287 145.844 36.6896 144.231 37.5723C142.624 38.4577 140.73 38.8991 138.543 38.8991ZM138.543 34.8311C140.155 34.8311 141.448 34.2554 142.42 33.0986C143.397 31.9446 143.889 30.2368 143.889 27.978C143.889 25.6973 143.397 23.995 142.42 22.8684C141.448 21.7362 140.155 21.1688 138.543 21.1688C136.93 21.1688 135.632 21.7362 134.654 22.8684C133.682 23.995 133.196 25.6973 133.196 27.978C133.196 30.2368 133.682 31.9446 134.654 33.0986C135.632 34.2554 136.93 34.8311 138.543 34.8311Z" fill="#131313"/>
    <path d="M156.447 38.8114C154.664 38.8114 153.774 37.8985 153.774 36.0701V19.8859C153.774 18.0877 154.65 17.1885 156.403 17.1885C158.154 17.1885 159.032 18.0877 159.032 19.8859V20.785C159.753 19.5871 160.725 18.6743 161.948 18.0438C163.169 17.4161 164.544 17.1008 166.068 17.1008C171.044 17.1008 173.535 19.9709 173.535 25.7083V36.0701C173.535 37.8985 172.643 38.8114 170.862 38.8114C169.05 38.8114 168.145 37.8985 168.145 36.0701V25.9605C168.145 24.3377 167.835 23.1589 167.217 22.4188C166.598 21.6732 165.64 21.3004 164.345 21.3004C162.76 21.3004 161.501 21.7938 160.567 22.7807C159.631 23.762 159.165 25.0668 159.165 26.6951V36.0701C159.165 37.8985 158.259 38.8114 156.447 38.8114Z" fill="#131313"/>
    <path d="M186.735 38.8991C185.498 38.8991 184.186 38.7702 182.803 38.5153C181.425 38.2604 180.191 37.819 179.103 37.1885C178.498 36.8459 178.122 36.4265 177.976 35.9276C177.835 35.4232 177.857 34.9517 178.042 34.5131C178.225 34.069 178.539 33.7456 178.981 33.5482C179.429 33.3453 179.959 33.3892 180.572 33.6798C181.721 34.2225 182.795 34.5981 183.797 34.8092C184.805 35.023 185.799 35.1271 186.779 35.1271C188.155 35.1271 189.182 34.8941 189.861 34.4254C190.538 33.9512 190.877 33.3289 190.877 32.5614C190.877 31.3634 189.985 30.5932 188.204 30.2478L183.885 29.4364C180.232 28.751 178.407 26.8651 178.407 23.7785C178.407 22.4133 178.785 21.2291 179.545 20.2258C180.309 19.2253 181.367 18.455 182.715 17.9122C184.068 17.3722 185.625 17.1008 187.387 17.1008C189.911 17.1008 192.17 17.6573 194.158 18.7675C194.702 19.0526 195.022 19.4473 195.119 19.9517C195.221 20.4506 195.166 20.9221 194.953 21.3662C194.738 21.8048 194.401 22.12 193.937 22.3092C193.479 22.4928 192.948 22.4407 192.346 22.1557C191.454 21.6951 190.596 21.3662 189.773 21.1688C188.955 20.9714 188.174 20.8728 187.431 20.8728C186.017 20.8728 184.971 21.114 184.294 21.5964C183.623 22.0789 183.289 22.7231 183.289 23.5263C183.289 24.7845 184.106 25.5548 185.741 25.8399L190.06 26.6513C191.929 26.9967 193.343 27.6244 194.301 28.5372C195.265 29.4528 195.748 30.6809 195.748 32.2214C195.748 34.3048 194.926 35.9385 193.285 37.1228C191.651 38.307 189.466 38.8991 186.735 38.8991Z" fill="#131313"/>
    <path d="M209.691 38.8991C207.504 38.8991 205.604 38.4577 203.991 37.5723C202.384 36.6896 201.133 35.4287 200.236 33.7894C199.344 32.1447 198.899 30.2094 198.899 27.978C198.899 25.7494 199.344 23.8223 200.236 22.1995C201.133 20.5712 202.384 19.313 203.991 18.4276C205.604 17.5449 207.504 17.1008 209.691 17.1008C211.878 17.1008 213.772 17.5449 215.379 18.4276C216.992 19.313 218.243 20.5712 219.135 22.1995C220.024 23.8223 220.471 25.7494 220.471 27.978C220.471 30.2094 220.024 32.1447 219.135 33.7894C218.243 35.4287 216.992 36.6896 215.379 37.5723C213.772 38.4577 211.878 38.8991 209.691 38.8991ZM209.691 34.8311C211.304 34.8311 212.596 34.2554 213.568 33.0986C214.546 31.9446 215.037 30.2368 215.037 27.978C215.037 25.6973 214.546 23.995 213.568 22.8684C212.596 21.7362 211.304 21.1688 209.691 21.1688C208.078 21.1688 206.78 21.7362 205.803 22.8684C204.831 23.995 204.345 25.6973 204.345 27.978C204.345 30.2368 204.831 31.9446 205.803 33.0986C206.78 34.2554 208.078 34.8311 209.691 34.8311Z" fill="#131313"/>
    <path d="M232.124 38.899C227.322 38.899 224.922 36.2318 224.922 30.8946V10.6315C224.922 8.8332 225.811 7.93408 227.595 7.93408C229.406 7.93408 230.312 8.8332 230.312 10.6315V30.6315C230.312 33.2055 231.389 34.4911 233.548 34.4911C233.775 34.4911 233.99 34.4856 234.189 34.4692C234.393 34.4555 234.598 34.4335 234.797 34.4034C235.2 34.3458 235.473 34.4527 235.614 34.7214C235.76 34.9927 235.835 35.5437 235.835 36.3771C235.835 37.087 235.691 37.6435 235.404 38.0437C235.117 38.4467 234.642 38.6852 233.979 38.7674C233.375 38.8551 232.756 38.899 232.124 38.899Z" fill="#131313"/>
    <path d="M249.079 38.8991C246.694 38.8991 244.634 38.4577 242.905 37.5723C241.182 36.6896 239.851 35.4342 238.917 33.8114C237.981 32.1831 237.515 30.2532 237.515 28.0219C237.515 25.8508 237.968 23.9539 238.873 22.3311C239.785 20.7028 241.038 19.4227 242.629 18.4934C244.225 17.5668 246.045 17.1008 248.085 17.1008C251.081 17.1008 253.448 18.0438 255.188 19.9298C256.925 21.8103 257.794 24.3788 257.794 27.6381C257.794 28.6907 257.104 29.2171 255.729 29.2171H242.695C243.098 32.9616 245.258 34.8311 249.168 34.8311C249.919 34.8311 250.758 34.7406 251.686 34.557C252.62 34.3678 253.509 34.0471 254.348 33.5921C255.091 33.1617 255.721 33.0274 256.237 33.1864C256.759 33.3399 257.126 33.6469 257.341 34.1074C257.562 34.5625 257.59 35.0668 257.43 35.6206C257.275 36.177 256.867 36.6567 256.204 37.057C255.193 37.6875 254.033 38.1507 252.724 38.4495C251.421 38.7483 250.206 38.8991 249.079 38.8991ZM248.306 20.7412C246.721 20.7412 245.44 21.2291 244.462 22.1995C243.482 23.1726 242.894 24.4857 242.695 26.1359H253.31C253.191 24.398 252.708 23.063 251.863 22.1337C251.015 21.2072 249.83 20.7412 248.306 20.7412Z" fill="#131313"/>
    <path d="M13.1633 29.8407C12.8099 29.9887 12.5006 29.9942 12.2355 29.8627C11.9759 29.7311 11.7964 29.5282 11.6943 29.2486C11.5893 28.9718 11.5838 28.6976 11.6722 28.4262C11.7661 28.1494 11.9925 27.9328 12.3459 27.7793L21.5027 23.9635L12.3459 20.1587C11.9925 20.0052 11.7661 19.7859 11.6722 19.5008C11.5838 19.2157 11.5893 18.9389 11.6943 18.6675C11.7964 18.3906 11.9759 18.185 12.2355 18.0534C12.5006 17.9164 12.8099 17.9219 13.1633 18.0754L23.27 22.3407C24.0432 22.656 24.4298 23.1905 24.4298 23.9416C24.4298 24.7311 24.0432 25.2848 23.27 25.5973L13.1633 29.8407Z" fill="#131313"/>
    <path d="M27.0347 33.0534C26.7476 33.0534 26.5046 32.9657 26.3057 32.7903C26.1124 32.6148 26.0186 32.3901 26.0186 32.1214C26.0186 31.85 26.1124 31.6225 26.3057 31.4416C26.5046 31.2579 26.7476 31.1675 27.0347 31.1675H37.0642C37.3513 31.1675 37.5861 31.2579 37.7711 31.4416C37.9616 31.6225 38.0583 31.85 38.0583 32.1214C38.0583 32.3901 37.9616 32.6148 37.7711 32.7903C37.5861 32.9657 37.3513 33.0534 37.0642 33.0534H27.0347Z" fill="#131313"/>
</svg>
