<svg width="96" height="50" viewBox="0 0 96 50" fill="none" xmlns="http://www.w3.org/2000/svg">
  <path d="M95.9518 0V35.4328C95.9518 41.0397 92.3751 45.5565 87.0082 46.8049V50H0.666992V10.787C0.666992 4.84016 5.50715 0 11.454 0H95.9518Z" fill="white"/>
  <path d="M18.7046 27.0059C20.0546 25.5909 20.793 23.6575 20.793 21.5624V3.85181H12.186C7.96091 3.85181 4.52246 7.29025 4.52246 11.5154V46.1516H12.5444C15.1428 46.1516 17.2729 45.3632 18.7096 43.8798C20.073 42.4748 20.7947 40.4664 20.7947 38.0713V27.9259H17.7379L18.3829 27.3259C18.5013 27.2176 18.6046 27.1109 18.7063 27.0076L18.7046 27.0059ZM13.8094 38.0696C13.8094 39.0696 13.3244 39.738 12.5994 39.738H11.506V31.4711H13.8094V38.0696ZM13.8094 23.9108C13.8094 25.0142 13.1577 25.4059 12.5994 25.4059H11.506V10.207H13.8094V23.9108Z" fill="#6A00F4"/>
  <path d="M31.5767 28.8343V10.207H30.4834C29.7583 10.207 29.2733 10.9004 29.2733 11.9321V39.7397H30.37C31.0917 39.7397 31.5767 39.0696 31.5767 38.0713V31.1427H38.5603V38.0713C38.5603 40.4647 37.8419 42.4698 36.4786 43.8798C35.0385 45.3649 32.9051 46.1516 30.31 46.1516H22.2881V11.9321C22.2881 9.53866 23.0098 7.52526 24.3765 6.11688C25.8065 4.63517 27.9183 3.85181 30.4834 3.85181H38.5603V28.836H31.5767V28.8343Z" fill="#6A00F4"/>
  <path d="M48.2539 3.85181C45.6871 3.85181 43.5737 4.63517 42.1437 6.11688C40.7803 7.5286 40.0586 9.537 40.0586 11.9321V46.1516H48.0805C50.7073 46.1516 52.8574 45.3465 54.3007 43.8231C55.6291 42.4181 56.3308 40.4297 56.3308 38.0713V3.85181H48.2539ZM49.3472 38.0713C49.3472 39.0713 48.8622 39.7397 48.1372 39.7397H47.0405V11.9321C47.0405 10.902 47.5288 10.207 48.2555 10.207H49.3489V38.0696L49.3472 38.0713Z" fill="#6A00F4"/>
  <path d="M71.1042 33.6611L71.7459 33.0578C71.9226 32.8944 72.0859 32.7278 72.2343 32.5611C73.491 31.1494 74.156 29.3277 74.156 27.2943V3.85181H57.8838V46.1516H64.8674V37.2046H67.2308V46.1516H74.2143V33.6611H71.1026H71.1042ZM67.1741 29.6443C67.1741 30.391 66.7958 31.1427 66.0774 31.1427H64.8707V10.207H67.1741V29.6427V29.6443Z" fill="#6A00F4"/>
  <path d="M75.8262 3.85181V46.1516H83.1564V43.2831H84.0764C88.7249 43.2831 92.0984 39.983 92.0984 35.4345V3.85181H75.8262ZM85.1131 35.3745C85.1131 36.1212 84.7348 36.8729 84.0164 36.8729H82.8097V10.207H85.1131V35.3745Z" fill="#6A00F4"/>
</svg>
