<svg width="24" height="24" viewBox="0 0 24 24" fill="none" xmlns="http://www.w3.org/2000/svg">
  <path d="M7.92009 13.4697C9.33009 13.4697 10.4601 14.6107 10.4601 16.0307V19.4397C10.4601 20.8497 9.33009 21.9997 7.92009 21.9997H4.54009C3.14009 21.9997 2.00009 20.8497 2.00009 19.4397V16.0307C2.00009 14.6107 3.14009 13.4697 4.54009 13.4697H7.92009ZM19.4602 13.4697C20.8602 13.4697 22.0002 14.6107 22.0002 16.0307V19.4397C22.0002 20.8497 20.8602 21.9997 19.4602 21.9997H16.0802C14.6702 21.9997 13.5402 20.8497 13.5402 19.4397V16.0307C13.5402 14.6107 14.6702 13.4697 16.0802 13.4697H19.4602ZM7.92009 2C9.33009 2 10.4601 3.15 10.4601 4.561V7.97C10.4601 9.39 9.33009 10.53 7.92009 10.53H4.54009C3.14009 10.53 2.00009 9.39 2.00009 7.97V4.561C2.00009 3.15 3.14009 2 4.54009 2H7.92009ZM19.4602 2C20.8602 2 22.0002 3.15 22.0002 4.561V7.97C22.0002 9.39 20.8602 10.53 19.4602 10.53H16.0802C14.6702 10.53 13.5402 9.39 13.5402 7.97V4.561C13.5402 3.15 14.6702 2 16.0802 2H19.4602Z" fill="#FCFAF9"/>
</svg>
