<svg width="24" height="24" viewBox="0 0 24 24" fill="none" xmlns="http://www.w3.org/2000/svg">
  <path fill-rule="evenodd" clip-rule="evenodd" d="M9.83912 15.512L8.20812 15.284C8.12212 15.268 8.04812 15.216 8.01312 15.148L7.27912 13.678C7.27812 13.676 7.27612 13.674 7.27612 13.671C7.20612 13.542 7.09712 13.434 6.96012 13.359C6.78612 13.266 6.58612 13.248 6.39412 13.305C6.20112 13.365 6.04412 13.496 5.94812 13.678L5.21412 15.144C5.17712 15.216 5.10412 15.268 5.02812 15.283L3.37612 15.514C3.21112 15.545 3.06612 15.621 2.95612 15.735C2.81812 15.876 2.74512 16.063 2.75012 16.261C2.75412 16.458 2.83512 16.639 2.97312 16.769L4.16512 17.923C4.22112 17.975 4.24612 18.049 4.23212 18.127L3.95112 19.74C3.92612 19.894 3.95312 20.058 4.02812 20.206C4.12112 20.382 4.27612 20.51 4.46512 20.567C4.53712 20.589 4.61012 20.6 4.68212 20.6C4.80312 20.6 4.92212 20.57 5.03012 20.512L6.49212 19.755C6.56812 19.717 6.65812 19.718 6.72812 19.752L8.19512 20.512C8.34612 20.59 8.50812 20.615 8.65712 20.587C8.85312 20.557 9.02512 20.454 9.14212 20.295C9.25912 20.135 9.30612 19.938 9.27412 19.737L8.99412 18.128C8.98112 18.05 9.00512 17.974 9.06312 17.92L10.2431 16.777C10.3681 16.666 10.4491 16.511 10.4691 16.342C10.5211 15.938 10.2451 15.574 9.83912 15.512Z" fill="#FCFAF9"/>
  <path fill-rule="evenodd" clip-rule="evenodd" d="M21.0178 16.7762C21.1418 16.6652 21.2218 16.5102 21.2438 16.3422C21.2958 15.9382 21.0198 15.5732 20.6118 15.5122L18.9818 15.2842C18.8948 15.2682 18.8208 15.2152 18.7858 15.1482L18.0518 13.6782L18.0498 13.6742C17.9818 13.5442 17.8728 13.4352 17.7328 13.3592C17.5568 13.2662 17.3578 13.2472 17.1668 13.3062C16.9748 13.3652 16.8178 13.4962 16.7218 13.6782L15.9878 15.1442C15.9508 15.2152 15.8758 15.2682 15.8028 15.2822L14.1498 15.5142C13.9848 15.5442 13.8388 15.6212 13.7298 15.7342C13.5918 15.8762 13.5178 16.0632 13.5228 16.2612C13.5268 16.4582 13.6078 16.6402 13.7468 16.7692L14.9388 17.9222C14.9958 17.9752 15.0198 18.0492 15.0058 18.1272L14.7238 19.7392C14.6988 19.8922 14.7258 20.0572 14.8018 20.2072C14.8948 20.3822 15.0508 20.5102 15.2398 20.5682C15.3108 20.5892 15.3838 20.6002 15.4558 20.6002C15.5768 20.6002 15.6968 20.5702 15.8048 20.5122L17.2658 19.7552C17.3398 19.7172 17.4308 19.7182 17.5008 19.7522L18.9678 20.5112C19.1158 20.5882 19.2838 20.6152 19.4298 20.5872C19.6258 20.5582 19.7988 20.4542 19.9158 20.2942C20.0338 20.1342 20.0808 19.9382 20.0478 19.7372L19.7678 18.1262C19.7538 18.0492 19.7788 17.9752 19.8368 17.9202L21.0178 16.7762Z" fill="#FCFAF9"/>
  <path fill-rule="evenodd" clip-rule="evenodd" d="M14.0432 12.5467C14.2392 12.5177 14.4122 12.4137 14.5292 12.2547C14.6472 12.0947 14.6932 11.8977 14.6612 11.6967L14.3812 10.0887C14.3672 10.0077 14.3942 9.92768 14.4492 9.86968L15.6292 8.73668C15.7532 8.62867 15.8332 8.47368 15.8562 8.30066C15.9072 7.89767 15.6322 7.53268 15.2272 7.47167L13.5792 7.23168C13.5022 7.22168 13.4332 7.17268 13.3982 7.10868L12.6662 5.63868C12.6652 5.63568 12.6642 5.63368 12.6632 5.63168C12.5942 5.50367 12.4852 5.39568 12.3462 5.31867C12.1712 5.22567 11.9692 5.20768 11.7812 5.26568C11.5882 5.32468 11.4312 5.45568 11.3352 5.63768L10.6022 7.10368C10.5642 7.17568 10.4902 7.22768 10.4162 7.24268L8.76222 7.47368C8.59722 7.50467 8.45122 7.58167 8.34222 7.69567C8.20622 7.83467 8.13122 8.02667 8.13622 8.22268C8.14122 8.41968 8.22222 8.60068 8.36122 8.73067L9.54422 9.86368C9.60622 9.92768 9.63322 10.0067 9.61922 10.0867L9.33722 11.6977C9.31122 11.8517 9.33822 12.0167 9.41522 12.1667C9.50822 12.3417 9.66322 12.4697 9.85222 12.5267C9.92422 12.5487 9.99722 12.5597 10.0692 12.5597C10.1902 12.5597 10.3092 12.5297 10.4172 12.4717L11.8782 11.7147C11.9542 11.6777 12.0442 11.6767 12.1152 11.7127L13.5812 12.4707C13.7292 12.5477 13.8962 12.5767 14.0432 12.5467Z" fill="#FCFAF9"/>
</svg>
