<svg width="20" height="18" viewBox="0 0 20 18" fill="none" xmlns="http://www.w3.org/2000/svg">
  <path fill-rule="evenodd" clip-rule="evenodd" d="M12.2309 5.29263L11.5899 5.90662L11.7399 6.76863C11.7949 7.1316 11.5519 7.4666 11.1979 7.5226C11.0639 7.5446 10.9179 7.5226 10.7909 7.4576L9.9599 7.0246L9.2109 7.4576C9.1179 7.5076 9.0139 7.53261 8.9099 7.53261C8.8439 7.53261 8.7789 7.5226 8.7139 7.5026C8.5469 7.4516 8.4099 7.3366 8.3289 7.1816C8.2629 7.0646 8.2379 6.91763 8.2609 6.77363L8.4129 5.90864L7.77687 5.29764C7.65087 5.17764 7.58087 5.01462 7.57687 4.84062C7.57387 4.66762 7.63887 4.50163 7.75987 4.37663C7.86187 4.27163 7.99887 4.20163 8.1449 4.18363L9.0689 4.05064L9.4159 3.27163C9.5849 2.94463 9.9779 2.81764 10.3039 2.98564C10.4209 3.04664 10.5169 3.14164 10.5819 3.26064L10.5859 3.27063L11.0029 4.10163L11.8639 4.18463C12.0329 4.20763 12.1869 4.29663 12.2929 4.43563C12.3979 4.57463 12.4419 4.74563 12.4179 4.91862C12.4029 5.05062 12.3359 5.18763 12.2309 5.29263ZM19.7209 2.44163C19.6789 2.06263 19.3579 1.77562 18.9759 1.77562H16.5129C16.5469 1.21562 16.5499 0.842625 16.5499 0.765625C16.5499 0.489635 16.3269 0.265625 16.0499 0.265625H3.94987C3.81687 0.265625 3.68987 0.318635 3.59587 0.412625C3.50187 0.505635 3.44987 0.633625 3.44987 0.766625C3.44987 0.843625 3.45287 1.21662 3.48687 1.77562H1.02387C0.641871 1.77562 0.320871 2.06263 0.278871 2.44163C0.258871 2.61563 -0.164129 6.72262 2.99087 8.7976C3.11787 8.8816 3.25987 8.92161 3.40187 8.92161C3.64587 8.92161 3.88487 8.8026 4.02987 8.5836C4.25687 8.2376 4.16187 7.7726 3.81487 7.5446C2.08887 6.40962 1.78987 4.33862 1.75487 3.27562H3.62787C4.01687 6.40462 5.26487 11.3896 9.2479 11.9536V13.7086H6.90387C6.68587 13.7086 6.49387 13.8496 6.42687 14.0556L5.72987 16.2316H4.39887C3.98487 16.2316 3.64887 16.5676 3.64887 16.9816C3.64887 17.3956 3.98487 17.7316 4.39887 17.7316H15.7439C16.1579 17.7316 16.4939 17.3956 16.4939 16.9816C16.4939 16.5676 16.1579 16.2316 15.7439 16.2316H14.4119L13.7159 14.0566C13.6499 13.8496 13.4579 13.7086 13.2399 13.7086H10.7479V11.9556C14.7399 11.3996 15.9859 6.40763 16.3739 3.27562H18.2449C18.2099 4.33862 17.9109 6.40962 16.1849 7.5446C15.8379 7.7726 15.7429 8.2376 15.9699 8.5836C16.1149 8.8026 16.3539 8.92161 16.5979 8.92161C16.7399 8.92161 16.8819 8.8816 17.0089 8.7976C20.1639 6.72262 19.7409 2.61563 19.7209 2.44163Z" fill="#FCFAF9"/>
</svg>
