<svg width="24" height="24" viewBox="0 0 24 24" fill="none" xmlns="http://www.w3.org/2000/svg">
  <path fill-rule="evenodd" clip-rule="evenodd" d="M8.33671 7.45117H8.33271C7.83571 7.45117 7.45971 7.82017 7.45771 8.31117C7.45571 8.52817 7.54371 8.73717 7.70471 8.89817C7.86771 9.06217 8.07971 9.15317 8.30271 9.15417H8.30471C8.76671 9.15417 9.15871 8.77217 9.16171 8.31817C9.16271 7.84917 8.78571 7.45317 8.33671 7.45117Z" fill="#FCFAF9"/>
  <path fill-rule="evenodd" clip-rule="evenodd" d="M10.6614 8.3245C10.6554 9.6095 9.59841 10.6535 8.30541 10.6535H8.29941C7.67541 10.6525 7.08541 10.4035 6.63941 9.9545C6.19641 9.5075 5.95341 8.9215 5.95741 8.3035C5.96441 6.9815 7.00641 5.9505 8.33141 5.9505H8.34241C9.62541 5.9545 10.6654 7.0185 10.6614 8.3235V8.3245ZM20.4414 10.2425C18.4014 8.1975 16.3584 6.1545 14.3134 4.1125C13.2524 3.0535 11.9584 2.5145 10.4704 2.5135H10.1524C6.81641 2.5005 5.61841 2.5225 5.39041 2.5625C3.75741 2.8445 2.52241 4.3085 2.51941 5.9705L2.51441 6.6245C2.50341 7.9055 2.48341 10.2895 2.55441 11.0515C2.66741 12.2795 3.17641 13.3565 4.06541 14.2525C6.12141 16.3205 8.18441 18.3785 10.2484 20.4355C10.9524 21.1385 11.8554 21.4905 12.7584 21.4905C13.6494 21.4905 14.5394 21.1465 15.2324 20.4595C16.9844 18.7235 18.7294 16.9795 20.4664 15.2265C21.8494 13.8305 21.8394 11.6405 20.4414 10.2425Z" fill="#FCFAF9"/>
  <path fill-rule="evenodd" clip-rule="evenodd" d="M8.33671 7.45117H8.33271C7.83571 7.45117 7.45971 7.82017 7.45771 8.31117C7.45571 8.52817 7.54371 8.73717 7.70471 8.89817C7.86771 9.06217 8.07971 9.15317 8.30271 9.15417H8.30471C8.76671 9.15417 9.15871 8.77217 9.16171 8.31817C9.16271 7.84917 8.78571 7.45317 8.33671 7.45117Z" fill="#FCFAF9"/>
  <path fill-rule="evenodd" clip-rule="evenodd" d="M10.6614 8.3245C10.6554 9.6095 9.59841 10.6535 8.30541 10.6535H8.29941C7.67541 10.6525 7.08541 10.4035 6.63941 9.9545C6.19641 9.5075 5.95341 8.9215 5.95741 8.3035C5.96441 6.9815 7.00641 5.9505 8.33141 5.9505H8.34241C9.62541 5.9545 10.6654 7.0185 10.6614 8.3235V8.3245ZM20.4414 10.2425C18.4014 8.1975 16.3584 6.1545 14.3134 4.1125C13.2524 3.0535 11.9584 2.5145 10.4704 2.5135H10.1524C6.81641 2.5005 5.61841 2.5225 5.39041 2.5625C3.75741 2.8445 2.52241 4.3085 2.51941 5.9705L2.51441 6.6245C2.50341 7.9055 2.48341 10.2895 2.55441 11.0515C2.66741 12.2795 3.17641 13.3565 4.06541 14.2525C6.12141 16.3205 8.18441 18.3785 10.2484 20.4355C10.9524 21.1385 11.8554 21.4905 12.7584 21.4905C13.6494 21.4905 14.5394 21.1465 15.2324 20.4595C16.9844 18.7235 18.7294 16.9795 20.4664 15.2265C21.8494 13.8305 21.8394 11.6405 20.4414 10.2425Z" fill="#FCFAF9"/>
</svg>
